<svg width="40" height="40" viewBox="0 0 40 40" fill="none" xmlns="http://www.w3.org/2000/svg">
  <!-- Hexagonal pattern -->
  <g fill="currentColor" opacity="0.9">
    <!-- Top hexagon -->
    <path d="M20 2L27.32 6.5V15.5L20 20L12.68 15.5V6.5L20 2Z" fill="currentColor"/>
    
    <!-- Top left hexagon -->
    <path d="M8.66 9L16 4.5V13.5L8.66 18L1.34 13.5V4.5L8.66 9Z" fill="currentColor"/>
    
    <!-- Top right hexagon -->
    <path d="M31.34 9L38.66 4.5V13.5L31.34 18L24 13.5V4.5L31.34 9Z" fill="currentColor"/>
    
    <!-- Center left hexagon -->
    <path d="M8.66 31L16 26.5V35.5L8.66 40L1.34 35.5V26.5L8.66 31Z" fill="currentColor"/>
    
    <!-- Center right hexagon -->
    <path d="M31.34 31L38.66 26.5V35.5L31.34 40L24 35.5V26.5L31.34 31Z" fill="currentColor"/>
    
    <!-- Bottom hexagon -->
    <path d="M20 38L27.32 33.5V24.5L20 20L12.68 24.5V33.5L20 38Z" fill="currentColor"/>
  </g>
  
  <!-- Checkmark -->
  <path d="M15 20L18.5 23.5L25 17" stroke="white" stroke-width="2.5" stroke-linecap="round" stroke-linejoin="round" fill="none"/>
  
  <!-- Small lines at bottom -->
  <g stroke="currentColor" stroke-width="1.5" stroke-linecap="round">
    <line x1="17" y1="29" x2="23" y2="29"/>
    <line x1="16" y1="31" x2="24" y2="31"/>
    <line x1="15" y1="33" x2="25" y2="33"/>
    <line x1="16" y1="35" x2="24" y2="35"/>
    <line x1="18" y1="37" x2="22" y2="37"/>
  </g>
</svg>
